<svg width="20" height="21" viewBox="0 0 20 21" fill="none" xmlns="http://www.w3.org/2000/svg">
<path fill-rule="evenodd" clip-rule="evenodd" d="M9.99994 0.998535C4.4862 0.998535 0 5.48399 0 10.9985C0 16.5125 4.4862 20.998 9.99994 20.998C15.5138 20.998 20 16.5125 20 10.9985C20 5.48399 15.5138 0.998535 9.99994 0.998535ZM14.8076 11.7673H10.7692V15.998C10.7692 16.4232 10.4246 16.7679 9.99994 16.7679C9.57538 16.7679 9.2308 16.4232 9.2308 15.998V11.7673H5.1923C4.76772 11.7673 4.42301 11.4227 4.42301 10.9985C4.42301 10.5733 4.76772 10.2297 5.1923 10.2297H9.2308V6.3824C9.2308 5.95821 9.57538 5.61358 9.99994 5.61358C10.4246 5.61358 10.7692 5.95821 10.7692 6.3824V10.2297H14.8076C15.2323 10.2297 15.5769 10.5733 15.5769 10.9985C15.5769 11.4227 15.2323 11.7673 14.8076 11.7673Z" fill="#3FDBB1"/>
</svg>
