<svg width="1920" height="770" viewBox="0 0 1920 770" fill="none" xmlns="http://www.w3.org/2000/svg">
<mask id="mask0_1_563" style="mask-type:alpha" maskUnits="userSpaceOnUse" x="0" y="0" width="1920" height="770">
<rect width="1920" height="770" fill="url(#paint0_linear_1_563)"/>
</mask>
<g mask="url(#mask0_1_563)">
<path d="M1753 846C1753 991.251 1635.25 1109 1490 1109V1109C1344.75 1109 1227 991.251 1227 846V846C1227 700.749 1344.75 583 1490 583H1753V846Z" fill="white" fill-opacity="0.05"/>
<path d="M336 -69C336 -214.251 453.749 -332 599 -332V-332C744.251 -332 862 -214.251 862 -69V-69C862 76.2509 744.251 194 599 194H336V-69Z" fill="white" fill-opacity="0.05"/>
<path d="M336 972L-214 972L-214 544C-214 350.7 -57.2997 194 136 194H336L336 972Z" fill="white" fill-opacity="0.02"/>
<path d="M1753 320C1753 174.749 1870.75 57 2016 57V57C2161.25 57 2279 174.749 2279 320V320C2279 465.251 2161.25 583 2016 583H1753V320Z" fill="white" fill-opacity="0.02"/>
</g>
<defs>
<linearGradient id="paint0_linear_1_563" x1="-32.5" y1="-25.4099" x2="1800.46" y2="1214.38" gradientUnits="userSpaceOnUse">
<stop stop-color="#1E3C72"/>
<stop offset="1" stop-color="#2A5298"/>
</linearGradient>
</defs>
</svg>
